# xmcd
#
# Track frame offsets: 
#        150
#        14205
#        25530
#        38727
#        48725
#        62510
#        74360
#        88530
#        100150
#        113427
#        122865
#        135330
#        146697
#        157605
#        172457
#        184755
#        197805
#        209957
#        221575
#        237482
#
# Disc length: 3327 seconds
#
# Revision: 0
# Processed by: cddbd v1.5.1PL0 Copyright (c) Steve Scherf et al.
# Submitted via: ExactAudioCopy v0.95b3
#
DISCID=280cfd14
DTITLE=Various Artist - Working The Blues Vol. 1: Willie Dixon's Blues Master
DTITLE=pieces
DYEAR=1992
DGENRE=Blues
TTITLE0=Otis Rush - I Can't Quit You Baby
TTITLE1=Otis Rush - Violent Love
TTITLE2=Magic Sam - All Your Love
TTITLE3=Magic Sam - Look Whatcha Done
TTITLE4=Buddy Guy - Sit And Cry
TTITLE5=Buddy Guy - Try To Quit You Baby
TTITLE6=Ike Turner's Kings Of Rhythm - Down And Out
TTITLE7=Harold Burrage - I Cry For You
TTITLE8=Harold Burrage - I'm Satisfied
TTITLE9=Betty Everett - Tell Me Darling
TTITLE10=Elmore James - Cry For Me Baby
TTITLE11=Junior Wells - Little By Little
TTITLE12=Junior Wells - You Sure Look Good To Me
TTITLE13=Willie Mabon - I'm The Fixer
TTITLE14=Koko Taylor - Honky Tonk
TTITLE15=Jesse Fortune - Too Many Cooks
TTITLE16=J. B. Lenoir And His African Hunch Rhythm - I Sing Um The Way
TTITLE16=I Feel
TTITLE17=Willie Dixon And Wild Child Butler - Hold Me Baby
TTITLE18=Buster Benton - Spider In My Stew
TTITLE19=Buster Benton - Good To The Last Drop
EXTD=
EXTT0=
EXTT1=
EXTT2=
EXTT3=
EXTT4=
EXTT5=
EXTT6=
EXTT7=
EXTT8=
EXTT9=
EXTT10=
EXTT11=
EXTT12=
EXTT13=
EXTT14=
EXTT15=
EXTT16=
EXTT17=
EXTT18=
EXTT19=
PLAYORDER=
